<?xml version="1.0" standalone="no"?>
<!DOCTYPE svg PUBLIC "-//W3C//DTD SVG 20010904//EN"
 "http://www.w3.org/TR/2001/REC-SVG-20010904/DTD/svg10.dtd">
<svg version="1.0" xmlns="http://www.w3.org/2000/svg"
 width="1120.000000pt" height="1120.000000pt" viewBox="0 0 1120.000000 1120.000000"
 preserveAspectRatio="xMidYMid meet">
<metadata>
Created by potrace 1.14, written by Peter Selinger 2001-2017
</metadata>
<g transform="translate(0.000000,1120.000000) scale(0.100000,-0.100000)"
fill="#000000" stroke="none">
<path d="M0 10454 c0 -462 4 -743 9 -739 6 3 15 -3 21 -12 10 -16 11 -16 7 5
-5 20 3 27 25 23 4 0 5 5 2 13 -3 8 4 16 17 19 14 4 20 11 16 21 -4 10 -1 16
8 16 8 0 15 4 15 10 0 5 7 7 16 3 13 -5 15 -2 9 15 -3 12 -3 22 2 23 43 4 54
7 60 13 5 4 -1 6 -11 4 -10 -1 -21 3 -24 11 -3 10 0 12 12 8 9 -4 23 2 35 14
11 12 24 18 29 15 6 -3 13 1 16 10 4 10 12 14 22 10 12 -4 15 -2 10 9 -3 8 -2
14 2 13 4 -2 22 13 40 31 27 27 35 31 47 21 9 -7 18 -10 22 -6 3 3 1 6 -5 6
-15 0 -4 27 13 34 10 3 12 0 8 -12 -4 -13 -2 -12 10 3 8 11 13 23 11 27 -3 5
4 8 15 8 11 0 23 4 26 10 4 6 -1 7 -12 4 -15 -5 -16 -4 -3 5 11 8 18 7 28 -6
6 -9 12 -12 12 -5 0 7 6 12 13 12 7 0 22 8 33 18 10 10 28 21 38 25 19 8 19 7
2 -12 -18 -20 -18 -20 8 -8 14 7 26 18 26 25 0 6 5 12 10 12 6 0 10 -6 10 -12
0 -9 4 -8 11 2 8 11 12 12 16 3 3 -10 10 -9 27 2 12 8 26 12 31 8 4 -5 5 0 1
11 -5 16 -2 18 29 14 27 -3 36 0 41 14 6 19 19 24 28 9 4 -5 0 -12 -6 -15 -7
-3 0 -3 17 -1 16 3 31 9 33 15 3 7 8 7 18 -1 11 -9 14 -8 14 5 0 9 5 16 11 16
5 0 8 -4 4 -9 -3 -5 -1 -12 5 -16 5 -3 10 1 10 10 0 14 9 16 49 13 42 -3 51 0
69 22 17 20 23 23 33 13 7 -7 19 -13 27 -13 8 0 10 5 6 13 -5 7 0 6 11 -3 11
-9 16 -10 11 -2 -4 6 -3 12 3 12 5 0 13 -5 17 -11 4 -8 9 -7 15 2 7 12 9 12 9
0 0 -9 4 -10 13 -4 21 16 69 34 62 23 -3 -5 1 -10 10 -10 9 0 13 4 10 10 -3 6
1 7 9 4 9 -3 16 -11 16 -17 0 -5 9 -2 20 8 20 18 21 18 27 -3 6 -25 18 -29 26
-8 4 10 18 13 49 11 24 -2 45 -5 48 -6 3 -1 12 -3 20 -3 8 -1 14 -8 12 -15 -1
-7 2 -10 8 -6 6 3 8 10 5 15 -3 4 4 10 15 13 11 3 20 1 20 -4 0 -4 7 -6 15 -3
10 4 15 0 15 -11 0 -16 2 -16 23 -3 13 9 30 12 42 8 11 -4 24 -5 29 -2 5 3 6
0 2 -6 -7 -12 11 -17 43 -13 7 2 11 -2 8 -6 -3 -5 23 -10 59 -10 47 -1 62 2
58 10 -4 7 -1 6 7 -2 11 -10 11 -15 2 -18 -18 -6 -16 -23 2 -23 8 0 15 4 15 9
0 13 30 7 69 -14 18 -9 36 -13 41 -10 6 3 10 -1 10 -9 0 -9 7 -16 15 -16 8 0
15 -5 15 -11 0 -8 5 -8 15 1 12 10 18 10 30 0 12 -10 15 -10 15 1 1 10 4 8 11
-3 5 -10 19 -18 30 -18 11 0 18 -4 15 -9 -7 -10 22 -24 34 -16 4 3 10 -2 14
-10 3 -8 12 -15 20 -15 7 0 16 -7 20 -15 3 -9 18 -15 36 -15 18 0 33 -6 36
-15 4 -8 13 -15 20 -15 8 0 17 -7 21 -16 4 -11 8 -12 13 -4 5 8 15 2 29 -19
22 -30 49 -44 36 -18 -4 6 5 -1 20 -16 21 -24 28 -27 40 -17 12 10 15 9 15 -5
0 -20 63 -82 98 -96 13 -5 29 -24 37 -41 8 -18 14 -26 15 -18 0 13 1 13 10 0
5 -8 10 -11 10 -7 0 4 6 2 14 -5 8 -7 12 -16 9 -20 -2 -5 2 -8 10 -8 19 0 60
-46 52 -59 -3 -7 2 -11 14 -11 12 0 21 -5 21 -11 0 -5 4 -8 9 -4 12 7 33 -29
24 -39 -4 -4 3 -9 15 -13 13 -3 22 -13 22 -25 0 -10 5 -16 10 -13 6 3 10 -3
10 -14 0 -12 4 -21 9 -21 5 0 13 -9 16 -21 4 -12 16 -30 26 -40 10 -10 19 -26
19 -35 0 -11 5 -14 16 -10 11 4 14 1 12 -12 -2 -9 3 -22 11 -28 8 -6 15 -22
16 -35 1 -15 7 -23 17 -21 11 2 18 -9 22 -33 4 -20 11 -33 16 -30 5 3 12 -6
16 -20 3 -14 11 -25 16 -25 6 0 8 -11 6 -25 -4 -17 -1 -25 8 -25 8 0 14 -5 14
-11 0 -5 4 -7 10 -4 6 3 7 -1 4 -9 -3 -9 2 -23 11 -32 9 -9 14 -23 11 -31 -3
-7 1 -16 10 -20 8 -3 13 -12 10 -20 -3 -8 -1 -11 4 -8 6 3 10 1 10 -4 0 -6 -4
-11 -10 -11 -5 0 -10 -5 -10 -11 0 -5 3 -8 8 -6 12 8 29 -15 40 -55 2 -10 8
-18 13 -18 16 0 10 -29 -8 -39 -16 -10 -16 -10 3 -11 16 0 20 -7 21 -37 1 -23
7 -40 18 -46 14 -8 15 -11 4 -19 -11 -7 -11 -11 -1 -15 6 -2 12 -9 12 -14 0
-6 -4 -7 -10 -4 -5 3 -10 1 -10 -5 0 -6 7 -13 15 -16 9 -4 17 -26 21 -55 4
-27 11 -49 16 -49 5 0 6 -10 3 -21 -5 -16 -4 -20 6 -15 8 4 6 1 -4 -7 -14 -12
-15 -16 -4 -26 8 -6 16 -10 18 -8 2 1 1 -2 -3 -7 -5 -6 -8 -20 -8 -33 0 -16 4
-21 15 -17 23 9 18 -4 -12 -32 -16 -14 -23 -23 -18 -21 6 3 18 -1 28 -8 15
-11 17 -17 7 -35 -10 -18 -8 -24 9 -39 24 -21 28 -36 8 -28 -10 4 -14 -5 -13
-33 0 -21 5 -38 10 -37 17 3 19 -42 3 -66 -11 -17 -11 -25 -3 -34 26 -28 31
-39 28 -57 -3 -16 0 -18 25 -11 49 13 158 17 194 7 l34 -10 -31 -1 c-48 -2
-144 -23 -144 -32 0 -5 -8 -18 -17 -29 -16 -18 -30 -20 -188 -21 -136 -1 -158
-3 -110 -10 158 -22 147 -19 133 -37 -12 -16 -11 -16 7 0 19 16 28 15 147 -7
70 -13 142 -28 161 -34 19 -7 85 -22 147 -36 135 -28 170 -50 82 -51 -31 -1
-70 -2 -87 -4 -42 -3 -117 17 -191 52 -15 7 -49 13 -75 13 -27 0 -49 3 -49 8
0 4 -10 7 -22 7 -19 0 -20 -2 -8 -10 12 -8 9 -10 -10 -6 -14 3 -47 8 -73 11
-36 5 -47 10 -43 21 6 16 -10 19 -20 3 -4 -7 -23 -9 -48 -6 -22 3 -87 11 -144
18 -79 10 -102 15 -98 26 4 11 1 11 -15 3 -11 -6 -32 -9 -47 -6 -15 3 -63 7
-107 10 l-80 5 65 -14 c36 -7 77 -18 92 -24 15 -6 83 -17 150 -26 180 -22 384
-67 461 -100 44 -19 26 -18 -84 4 -108 22 -207 37 -229 34 -8 -2 -61 5 -118
13 -57 9 -112 14 -123 11 -10 -3 -22 -1 -25 5 -3 5 -11 7 -18 5 -7 -3 -52 1
-102 9 -97 15 -265 18 -206 4 50 -12 53 -24 5 -16 -44 6 -50 2 -32 -24 8 -11
12 -12 16 -2 10 24 22 11 17 -18 -4 -19 -2 -30 5 -30 6 0 11 6 11 14 0 7 7 19
15 26 15 13 19 4 18 -37 -1 -7 3 -13 8 -13 4 0 11 -16 15 -35 7 -42 24 -46 25
-7 0 16 3 21 6 12 4 -8 13 -20 22 -27 9 -7 12 -13 7 -13 -21 0 30 -29 52 -30
19 0 22 -4 17 -20 -7 -22 20 -29 28 -7 7 17 27 -11 20 -29 -3 -7 5 -14 18 -16
29 -4 38 -28 10 -28 -30 0 -26 -18 6 -26 21 -6 31 -2 48 21 21 25 26 27 66 20
50 -9 124 -38 133 -54 9 -14 -9 -14 -113 1 -65 9 -86 9 -89 0 -2 -7 -11 -12
-20 -12 -9 0 -26 -7 -37 -15 -12 -10 -30 -13 -52 -9 -43 8 -57 -20 -24 -48 14
-11 18 -18 10 -18 -8 -1 0 -7 16 -15 29 -14 27 -14 -45 -14 -41 0 -93 -2 -115
-4 -23 -2 -52 2 -68 10 -17 8 -33 10 -43 5 -19 -10 56 -52 184 -102 45 -18 85
-36 88 -41 2 -5 -10 -2 -28 5 -55 23 -86 27 -43 7 27 -13 34 -20 20 -20 -22
-1 -90 21 -101 32 -4 4 -18 7 -31 7 -13 0 -38 7 -56 16 l-32 17 24 -27 c14
-14 29 -26 35 -26 6 0 22 -10 36 -21 16 -14 19 -19 8 -15 -27 8 -22 1 20 -31
68 -50 152 -126 152 -137 0 -6 11 -18 24 -26 65 -41 178 -135 238 -198 41 -43
91 -83 128 -103 34 -18 75 -45 90 -59 l28 -26 -50 -23 c-51 -23 -62 -40 -14
-22 23 10 26 8 26 -12 0 -34 63 -67 279 -143 55 -19 99 -41 108 -53 14 -21 50
-30 37 -10 -4 7 -1 10 7 7 8 -3 13 -12 11 -20 -2 -11 14 -19 58 -29 32 -7 57
-15 54 -18 -3 -3 12 -11 33 -17 21 -7 31 -12 21 -13 -9 -1 -76 18 -150 42
-281 91 -524 169 -535 173 -8 2 -13 22 -13 53 0 42 -4 53 -23 66 -58 38 -880
321 -898 309 -7 -4 -9 -3 -5 4 8 13 -25 24 -50 16 -13 -4 -15 -3 -6 3 9 7 -9
18 -60 38 -108 42 -260 114 -280 132 -16 14 -16 19 -4 37 13 21 13 21 -44 16
-32 -3 -56 -2 -54 2 3 4 17 8 31 8 15 0 24 2 21 5 -9 10 -139 -7 -151 -19 -17
-16 -19 -16 -120 26 -27 11 -55 17 -63 14 -8 -3 -13 -2 -10 3 3 5 -20 19 -52
32 -31 12 -92 40 -136 61 -83 42 -115 47 -43 8 23 -13 49 -28 57 -35 8 -7 61
-36 117 -66 106 -55 130 -74 49 -40 -39 17 -46 18 -46 5 0 -8 -4 -12 -10 -9
-5 3 -10 1 -10 -6 0 -6 -15 0 -34 15 -33 25 -56 21 -40 -6 5 -9 2 -8 -9 1 -10
8 -20 11 -24 7 -3 -3 -4 -7 -2 -9 2 -1 31 -25 64 -52 32 -28 55 -44 51 -37 -7
11 -4 12 13 3 11 -7 21 -16 21 -21 0 -5 12 -16 28 -24 27 -14 126 -106 113
-106 -3 0 -40 25 -81 56 -63 48 -69 51 -40 20 19 -21 70 -65 113 -98 42 -34
77 -63 77 -65 0 -2 -28 15 -62 38 -72 49 -168 99 -168 88 0 -4 5 -11 11 -14 6
-4 8 -13 5 -20 -3 -8 0 -15 6 -17 8 -3 9 -11 3 -24 -4 -10 -7 -27 -6 -36 1
-10 -4 -18 -11 -18 -8 -1 -7 -5 5 -14 12 -10 15 -16 7 -21 -7 -5 -1 -17 19
-34 17 -15 31 -35 31 -44 0 -10 8 -17 21 -17 11 0 17 -4 14 -11 -7 -10 39 -59
56 -59 5 0 9 -7 9 -15 0 -8 4 -15 9 -15 4 0 20 -10 34 -22 64 -57 80 -68 97
-68 10 0 49 -26 87 -58 37 -32 96 -80 131 -106 37 -28 61 -54 58 -61 -2 -7 4
-15 16 -18 14 -4 19 -11 14 -23 -5 -14 -2 -16 22 -11 16 3 33 2 38 -2 5 -5 29
-20 54 -33 25 -14 106 -60 180 -103 74 -43 198 -113 275 -156 77 -42 174 -99
215 -125 41 -27 90 -53 108 -59 17 -5 32 -13 32 -16 0 -3 -27 -18 -60 -33 -69
-31 -79 -42 -19 -21 75 27 210 26 210 0 0 -5 -21 -15 -48 -21 -49 -12 -143
-50 -143 -58 0 -3 26 4 58 15 149 50 166 52 203 33 35 -18 153 -70 244 -105
28 -11 64 -27 82 -34 17 -8 40 -15 52 -15 12 0 21 -3 21 -8 0 -7 -8 -11 -104
-52 -27 -11 -47 -23 -44 -25 3 -3 21 2 41 10 41 17 57 19 57 6 0 -5 -12 -8
-26 -9 -14 0 -31 -5 -37 -12 -10 -10 -4 -11 28 -6 39 6 40 6 15 -9 l-25 -16
25 7 c14 3 48 17 76 30 60 28 76 30 67 8 -3 -9 0 -20 8 -26 11 -7 11 -11 2
-15 -10 -3 -9 -10 2 -27 8 -12 12 -26 8 -29 -3 -4 -1 -7 5 -7 6 0 14 -9 17
-20 4 -12 14 -20 23 -19 13 2 76 -22 101 -38 2 -1 -2 -9 -9 -18 -14 -17 -14
-17 15 -33 36 -20 -4 -13 -107 19 -55 16 -104 29 -109 27 -6 -2 58 -26 141
-53 107 -34 146 -51 133 -56 -10 -4 -12 -8 -5 -8 24 -2 11 -19 -37 -51 -27
-17 -55 -38 -62 -47 -8 -8 25 10 73 41 47 31 92 56 99 56 8 0 -30 -30 -84 -66
-55 -36 -96 -68 -93 -72 4 -3 12 0 18 6 17 17 38 15 32 -3 -4 -8 -14 -15 -25
-15 -19 0 -44 -34 -35 -49 3 -5 0 -14 -8 -20 -10 -9 -15 -8 -20 4 -3 9 -10 14
-15 10 -6 -3 -7 -13 -4 -22 5 -13 1 -15 -21 -11 -30 6 -45 -7 -18 -17 26 -10
-76 -43 -116 -37 -28 4 -31 7 -20 20 12 13 10 14 -10 3 -13 -7 -31 -9 -40 -6
-9 4 -26 9 -37 10 -32 5 -349 100 -494 149 -74 25 -136 44 -138 42 -5 -4 339
-122 532 -181 141 -43 192 -65 152 -65 -9 0 -17 4 -17 8 0 5 -17 9 -37 10 -21
1 -63 8 -93 16 -30 8 -98 26 -150 40 -52 14 -124 33 -160 42 -36 9 -74 20 -85
24 -11 4 -108 36 -215 70 -379 122 -621 218 -932 372 -211 103 -369 190 -494
269 -51 32 -116 71 -146 87 -58 31 -212 144 -363 264 -49 39 -84 64 -76 54 8
-9 12 -19 9 -21 -2 -3 -23 18 -46 46 -52 64 -55 52 -5 -21 44 -65 55 -112 16
-64 -33 38 -143 206 -177 268 -33 59 -76 185 -76 220 0 14 -5 26 -11 26 -5 0
-7 -6 -3 -12 4 -8 3 -10 -2 -5 -5 5 -10 13 -10 18 -1 5 -2 14 -3 19 0 6 -11
10 -22 10 -16 0 -20 5 -16 20 6 22 -8 28 -16 8 -3 -8 -7 -6 -12 7 -5 11 -15
28 -23 37 -13 16 -12 17 7 13 12 -2 19 0 16 6 -4 5 -10 7 -15 4 -5 -3 -18 3
-29 14 -12 12 -27 18 -36 15 -8 -4 -15 -1 -15 6 0 6 5 8 10 5 6 -3 10 -1 10 5
0 6 -7 13 -15 16 -8 4 -15 13 -15 21 0 8 -8 13 -17 11 -10 -2 -18 3 -18 12 0
8 -10 16 -22 18 -13 2 -23 8 -23 13 0 18 -2 24 -12 37 -7 8 -7 12 1 12 6 0 11
5 11 11 0 8 -4 8 -14 -1 -8 -6 -12 -19 -9 -27 5 -11 3 -14 -6 -8 -7 4 -11 18
-8 31 3 20 2 22 -9 13 -11 -9 -14 -8 -14 4 0 8 6 18 13 20 8 4 7 6 -4 6 -9 1
-22 12 -29 26 -7 14 -20 24 -28 23 -8 -2 -17 3 -19 10 -3 8 2 10 14 6 17 -5
17 -5 -1 10 -10 8 -23 13 -27 10 -5 -3 -9 -1575 -9 -3495 l0 -3489 5600 0
5600 0 0 5600 0 5600 -5600 0 -5600 0 0 -746z m1037 -221 c0 -7 -4 -13 -8 -13
-4 0 -9 6 -12 13 -3 8 0 14 7 14 7 0 13 -6 13 -14z m4438 -1950 c41 -17 80
-46 127 -92 37 -36 78 -69 90 -73 46 -12 140 -8 216 12 166 42 423 53 587 24
50 -8 101 -17 115 -18 126 -15 263 -52 380 -102 47 -19 97 -39 111 -44 39 -12
184 -86 258 -131 34 -21 65 -39 67 -39 14 0 236 -181 313 -255 286 -275 471
-594 596 -1027 l33 -113 133 -48 c376 -134 697 -271 1054 -449 l190 -95 75 13
c52 9 80 19 92 34 19 24 38 26 38 5 0 -8 4 -15 8 -15 5 0 18 -8 30 -17 11 -10
30 -25 43 -33 12 -8 31 -25 42 -37 10 -12 30 -24 43 -27 27 -7 31 -21 9 -33
-13 -7 -20 -61 -16 -115 0 -9 61 -64 134 -121 294 -232 509 -513 573 -748 23
-83 22 -266 -1 -364 -18 -76 -65 -173 -97 -202 l-21 -18 20 40 c28 55 38 89
24 81 -6 -4 -11 -3 -11 3 0 5 5 13 10 16 15 10 12 28 -4 22 -12 -5 -12 0 0 30
l15 36 -36 -22 c-48 -28 -62 -27 -96 9 -30 31 -38 46 -16 34 13 -8 -11 26 -27
37 -5 4 -5 12 -1 18 5 9 11 9 22 -1 15 -12 15 -11 2 9 -11 18 -11 25 -1 35 6
6 12 16 12 21 0 6 -16 -11 -35 -37 -37 -48 -59 -63 -32 -22 15 23 15 24 -36
49 -29 13 -69 32 -90 41 -21 9 -35 21 -32 26 4 6 -1 7 -11 3 -12 -4 -15 -3
-10 5 4 7 2 10 -6 7 -14 -6 -41 42 -28 50 4 3 11 -2 14 -11 4 -9 9 -14 13 -11
3 4 1 13 -6 21 -9 11 -6 24 19 62 16 26 30 54 30 61 0 9 20 3 63 -18 69 -35
67 -25 -3 12 -25 13 -48 27 -51 32 -3 4 -16 -14 -28 -40 -28 -61 -71 -115 -71
-91 0 21 -60 70 -165 134 -44 27 -81 52 -83 56 -2 5 -10 8 -18 8 -8 0 -14 5
-14 11 0 5 -4 8 -9 5 -16 -10 -19 19 -5 45 22 40 16 46 -12 12 -23 -29 -65
-49 -49 -23 4 6 12 7 18 4 7 -4 8 -3 4 2 -5 5 -12 9 -15 10 -4 0 -14 4 -23 8
-9 4 -27 8 -40 10 -40 5 -60 18 -55 33 3 8 2 11 -3 8 -5 -3 -12 -1 -16 5 -3 5
-11 10 -16 10 -6 0 -7 -5 -3 -11 4 -7 1 -10 -7 -7 -8 2 -18 14 -24 26 -5 12
-13 22 -18 22 -4 0 -5 -5 -1 -12 8 -12 -4 -7 -48 24 -14 10 -33 18 -41 18 -9
0 -17 4 -19 9 -1 5 -9 11 -17 13 -26 6 -70 50 -64 64 3 8 -1 14 -10 14 -8 0
-18 -6 -20 -12 -3 -7 -6 -1 -6 15 -1 27 -1 27 -26 11 -14 -9 -27 -15 -28 -13
-1 2 -7 13 -13 24 -6 11 -17 20 -25 20 -8 0 -18 4 -24 8 -5 5 -28 19 -50 32
-22 13 -56 33 -75 45 -19 11 -62 38 -95 60 -103 68 -199 124 -231 135 -17 5
-29 15 -27 21 2 6 -3 11 -12 11 -8 0 -15 -5 -15 -10 0 -5 -8 -6 -17 -2 -10 4
-22 8 -28 10 -42 11 -74 29 -68 38 4 7 0 8 -11 4 -9 -4 -28 0 -42 10 -14 9
-36 17 -49 18 -31 4 -194 84 -263 130 -30 19 -59 32 -64 28 -6 -3 -8 -2 -5 3
7 13 -152 106 -169 100 -9 -3 -11 1 -7 11 4 10 2 14 -4 10 -11 -7 -129 51
-252 123 -150 87 -181 104 -299 161 -67 33 -130 62 -140 64 -9 2 -53 20 -97
40 -105 49 -474 194 -595 235 -122 40 -262 77 -325 84 -45 5 -43 4 15 -9 75
-17 244 -71 280 -90 14 -7 153 -65 310 -128 157 -64 373 -156 480 -206 107
-50 196 -91 199 -91 2 0 2 -3 -1 -6 -5 -5 -89 27 -216 82 -18 8 -41 14 -51 14
-21 0 -131 39 -145 51 -5 4 -21 5 -36 3 -23 -5 -27 -2 -26 16 1 18 -23 31
-189 96 -104 41 -227 93 -272 115 -145 69 -350 129 -445 129 -44 0 -239 -48
-248 -61 -3 -4 -23 0 -45 10 -37 16 -38 18 -20 28 11 6 63 18 115 28 90 17
167 42 90 29 -83 -14 -180 -35 -205 -44 -72 -27 11 -70 370 -190 203 -69 258
-92 168 -72 -23 5 -47 6 -56 1 -22 -13 -47 -1 -40 19 4 14 3 14 -5 3 -9 -12
-22 -12 -89 6 -43 11 -168 43 -278 71 -111 28 -217 58 -237 67 -20 8 -45 12
-55 9 -13 -4 -14 -3 -5 4 17 12 -68 32 -153 37 -37 2 -99 17 -159 39 -55 20
-134 45 -178 57 -43 12 -78 24 -78 28 1 22 142 81 195 81 14 0 25 4 25 9 0 15
-18 23 -22 10 -6 -17 -46 -1 -59 22 -8 16 -7 26 5 44 19 29 20 39 4 28 -7 -4
-5 5 5 20 21 32 21 37 2 37 -9 0 -15 9 -15 23 0 17 -10 27 -40 40 -22 9 -47
17 -54 17 -8 0 -17 4 -20 8 -5 9 103 49 119 44 6 -2 68 -15 139 -28 96 -19
132 -22 140 -14 6 7 7 11 1 10 -27 -6 -38 2 -16 11 16 6 35 6 56 -1 26 -9 48
-7 105 8 l72 19 -103 22 c-144 31 -259 51 -292 51 -16 0 -43 -11 -60 -24 -33
-24 -81 -41 -72 -25 3 5 3 24 -1 44 -6 34 -7 35 -48 30 -30 -4 -36 -3 -21 4
13 6 -8 7 -60 3 -173 -14 -304 -1 -445 42 -63 20 -189 56 -280 82 -91 25 -167
47 -169 49 -2 2 12 8 30 14 30 9 29 9 -16 4 -53 -5 -82 0 -228 44 -69 21 -86
30 -82 42 2 9 -2 29 -10 45 -8 15 -15 35 -15 42 0 8 -4 14 -10 14 -5 0 -10 5
-10 11 0 17 162 5 282 -21 183 -38 366 -62 391 -49 12 6 52 41 88 78 36 36
100 99 142 139 103 98 115 126 116 275 0 130 2 139 36 212 43 91 114 155 195
178 36 10 149 -7 205 -30z m-1784 -272 c19 -26 29 -30 93 -36 141 -13 263 -35
386 -68 69 -19 148 -38 175 -41 28 -4 61 -13 75 -21 22 -12 20 -13 -35 -12
-33 1 -67 -2 -77 -6 -12 -6 -16 -4 -15 10 2 13 -6 19 -28 21 -16 1 -39 7 -50
12 -43 19 -97 31 -152 35 -177 12 -281 24 -308 36 -35 16 -116 85 -107 93 11
11 22 6 43 -23z m212 -117 c44 -9 94 -22 111 -29 17 -8 63 -23 103 -35 69 -19
103 -40 68 -40 -9 0 -30 -8 -46 -17 -28 -16 -30 -16 -46 1 -17 17 -17 18 2 16
32 -4 49 -1 41 7 -4 4 -26 9 -49 10 -43 3 -215 36 -277 53 -19 5 -54 14 -77
20 -24 6 -43 15 -43 20 0 21 95 18 213 -6z m-1256 -60 c-3 -3 -12 -4 -19 -1
-8 3 -5 6 6 6 11 1 17 -2 13 -5z m1763 -14 c12 -8 10 -10 -10 -10 -14 0 -35
-3 -47 -6 -13 -4 -23 -2 -23 4 0 9 19 16 55 20 6 1 17 -3 25 -8z m-597 -54
c25 -20 21 -25 -16 -19 -23 3 -37 0 -46 -11 -17 -20 -41 -21 -41 -2 0 19 39
46 65 46 11 0 28 -7 38 -14z m283 -14 c6 -4 14 -20 17 -37 l7 -30 -16 30 c-9
17 -22 33 -28 37 -6 5 -7 8 -1 8 6 0 15 -4 21 -8z m-529 -8 c-3 -3 -12 -4 -19
-1 -8 3 -5 6 6 6 11 1 17 -2 13 -5z m873 -4 c0 -15 -26 -23 -41 -14 -9 5 -7
10 7 15 27 11 34 10 34 -1z m-220 -20 c0 -5 -12 -10 -26 -10 -14 0 -23 4 -19
10 3 6 15 10 26 10 10 0 19 -4 19 -10z m197 -66 c-3 -3 -12 -4 -19 -1 -8 3 -5
6 6 6 11 1 17 -2 13 -5z m-280 -56 c-3 -8 -6 -5 -6 6 -1 11 2 17 5 13 3 -3 4
-12 1 -19z m278 -18 c3 -5 -1 -10 -9 -10 -9 0 -16 5 -16 10 0 6 4 10 9 10 6 0
13 -4 16 -10z m-2965 -405 c10 -12 10 -15 -3 -15 -8 0 -17 7 -21 15 -3 8 -2
15 3 15 5 0 14 -7 21 -15z m3013 8 c-7 -2 -19 -2 -25 0 -7 3 -2 5 12 5 14 0
19 -2 13 -5z m-2902 -31 c-7 -2 -18 1 -23 6 -8 8 -4 9 13 5 13 -4 18 -8 10
-11z m2874 8 c3 -5 1 -10 -4 -10 -6 0 -11 5 -11 10 0 6 2 10 4 10 3 0 8 -4 11
-10z m59 3 c7 -7 16 -9 76 -17 50 -6 69 -16 81 -39 9 -16 13 -17 20 -6 5 9 9
10 9 2 0 -6 19 -14 42 -18 22 -4 64 -15 92 -25 l51 -18 -93 -7 c-63 -5 -89
-11 -80 -17 15 -11 -112 -4 -272 15 -89 10 -99 13 -65 18 31 5 34 6 12 8 -47
2 -117 23 -111 32 3 5 9 7 15 4 5 -3 25 -3 44 1 l35 6 -22 20 -23 20 30 -5
c40 -8 99 -16 160 -22 46 -4 48 -4 31 10 -18 14 -38 19 -58 16 -4 0 -5 6 -2
14 7 16 17 19 28 8z m-311 -60 c-7 -2 -19 -2 -25 0 -7 3 -2 5 12 5 14 0 19 -2
13 -5z m110 -50 c-7 -2 -19 -2 -25 0 -7 3 -2 5 12 5 14 0 19 -2 13 -5z m937
-8 c15 -18 5 -35 -21 -35 -24 0 -37 29 -18 41 19 12 25 11 39 -6z m-60 -35 c0
-5 -7 -10 -16 -10 -8 0 -12 5 -9 10 3 6 10 10 16 10 5 0 9 -4 9 -10z m-3307
-89 c31 -11 64 -17 74 -15 10 3 37 -2 61 -10 24 -9 40 -11 37 -6 -11 17 24 11
73 -13 26 -13 95 -38 154 -57 59 -19 108 -38 108 -42 0 -3 -10 -4 -22 -1 -42
11 -14 -4 115 -61 174 -77 363 -152 477 -190 76 -25 105 -31 148 -26 28 3 52
5 52 4 0 -2 -13 -16 -30 -32 -16 -17 -30 -38 -30 -46 0 -9 -2 -16 -5 -16 -3 0
-98 29 -211 65 -428 137 -861 316 -1034 429 -62 40 -51 45 33 17z m330 -27
c37 -16 67 -32 67 -37 0 -10 -44 2 -48 14 -2 4 -10 5 -18 2 -8 -3 -14 -1 -14
4 0 6 -18 16 -40 23 -22 7 -40 17 -40 23 0 5 6 7 13 4 6 -4 42 -18 80 -33z
m1948 16 c114 -17 468 -31 629 -26 189 6 141 -9 -60 -20 -177 -9 -524 20 -685
56 l-40 9 45 -4 c25 -3 75 -9 111 -15z m-1826 -64 c14 -8 22 -17 17 -20 -15
-9 -64 12 -57 24 8 13 8 13 40 -4z m183 -71 c83 -28 107 -42 52 -30 -19 4 -30
3 -30 -4 0 -6 9 -11 20 -11 11 0 20 -5 20 -11 0 -5 5 -7 11 -3 6 3 14 1 18 -5
5 -7 15 -9 26 -5 17 7 16 8 -5 16 -13 5 -21 11 -18 13 2 3 58 -16 124 -41 65
-25 157 -59 204 -76 47 -16 90 -35 95 -40 7 -8 4 -9 -10 -3 -11 4 -29 10 -40
13 -11 2 -25 9 -32 14 -7 5 -17 7 -24 3 -6 -4 -14 -3 -18 2 -3 5 -33 20 -66
32 -33 13 -86 34 -118 47 -68 28 -77 29 -77 9 0 -13 -8 -12 -52 6 -29 11 -68
25 -86 30 -26 8 -32 14 -27 30 5 16 1 19 -24 19 -17 0 -31 5 -31 10 0 6 -11
10 -24 10 -25 0 -40 12 -29 23 3 4 17 0 32 -7 14 -7 63 -26 109 -41z m-68 -10
c27 -15 20 -19 -17 -9 -13 4 -23 10 -23 15 0 12 11 11 40 -6z m2704 -4 c7 -11
-22 -23 -35 -15 -5 3 -7 10 -4 15 8 12 32 12 39 0z m-2464 -81 c0 -5 7 -10 15
-10 8 0 15 -4 15 -10 0 -5 -7 -10 -15 -10 -8 0 -15 5 -15 10 0 6 -7 10 -15 10
-8 0 -15 5 -15 10 0 6 7 10 15 10 8 0 15 -4 15 -10z m80 -40 c0 -5 -7 -10 -15
-10 -8 0 -15 5 -15 10 0 6 7 10 15 10 8 0 15 -4 15 -10z m1863 3 c-7 -2 -19
-2 -25 0 -7 3 -2 5 12 5 14 0 19 -2 13 -5z m-1823 -13 c0 -5 -8 -10 -17 -10
-15 0 -16 2 -3 10 19 12 20 12 20 0z m1750 -5 c-14 -8 -33 -14 -43 -15 -10 0
-16 -4 -12 -9 8 -14 -32 -33 -58 -29 -21 4 -21 5 5 18 15 7 25 16 23 21 -7 10
43 27 80 28 l30 0 -25 -14z m-1710 -15 c0 -5 -5 -10 -11 -10 -5 0 -7 5 -4 10
3 6 8 10 11 10 2 0 4 -4 4 -10z m75 -30 c8 -13 -5 -13 -25 0 -13 8 -13 10 2
10 9 0 20 -4 23 -10z m2584 -46 c77 -25 141 -49 141 -53 0 -4 -68 -29 -150
-55 -105 -33 -155 -44 -166 -38 -9 5 -26 7 -38 5 -16 -4 -18 -2 -7 5 11 8 9
12 -10 22 -22 12 -72 59 -75 70 -4 21 -18 40 -30 40 -32 0 -10 18 49 38 80 27
111 24 286 -34z m-2452 -10 c-3 -3 -12 -4 -19 -1 -8 3 -5 6 6 6 11 1 17 -2 13
-5z m3513 -25 c117 -27 201 -54 252 -80 l43 -22 -35 -12 c-45 -16 -121 -25
-115 -15 3 4 -4 6 -15 3 -28 -7 -22 -11 32 -22 34 -6 55 -4 79 6 19 8 51 13
74 10 56 -6 385 -138 385 -154 0 -7 -5 -13 -11 -13 -5 0 -8 4 -5 9 3 4 -14 14
-37 21 -23 6 -46 16 -52 20 -5 4 -26 11 -45 15 -19 4 -39 10 -44 13 -14 8 -92
6 -107 -3 -7 -5 -10 -4 -6 2 9 15 -53 26 -69 12 -13 -10 -37 -9 -104 7 -64 15
-71 13 -22 -7 29 -12 51 -24 48 -26 -7 -7 -501 145 -583 179 l-78 33 40 6 c22
4 63 16 90 28 60 25 148 22 285 -10z m-637 -109 c74 -17 168 -42 209 -56 40
-14 79 -26 86 -26 6 -1 12 -4 12 -8 0 -3 16 -12 36 -19 65 -23 28 -22 -57 3
-185 53 -285 79 -309 78 -14 0 -43 -9 -65 -18 -22 -10 -44 -17 -49 -15 -5 1
-13 -4 -18 -11 -5 -9 -10 -10 -15 -2 -5 6 -21 10 -38 10 -43 0 -112 12 -133
23 -9 5 -30 9 -46 9 -15 0 -32 6 -37 13 -7 11 -9 11 -9 1 0 -7 -5 -10 -10 -7
-6 4 -7 11 -4 17 4 7 2 8 -5 4 -6 -4 -24 -9 -39 -12 -23 -4 -24 -3 -9 7 10 6
64 28 119 49 l100 37 72 -23 c40 -12 134 -37 209 -54z m-2795 29 c-2 -6 -8
-10 -13 -10 -5 0 -11 4 -13 10 -2 6 4 11 13 11 9 0 15 -5 13 -11z m292 -79 c0
-5 -4 -10 -10 -10 -5 0 -10 5 -10 10 0 6 5 10 10 10 6 0 10 -4 10 -10z m51
-23 c-10 -9 -11 -8 -5 6 3 10 9 15 12 12 3 -3 0 -11 -7 -18z m2565 -22 c64
-20 114 -38 112 -41 -3 -2 -35 2 -71 10 -37 7 -69 11 -71 8 -3 -3 -13 1 -22 8
-13 11 -17 11 -24 1 -4 -8 -12 -11 -18 -7 -6 3 -34 8 -62 11 -28 2 -61 7 -72
11 -21 6 -21 6 -5 -10 23 -24 22 -26 -18 -24 -34 1 -52 18 -19 18 8 0 13 4 10
9 -10 15 76 51 111 47 18 -3 84 -21 149 -41z m-2381 15 c13 -6 15 -9 5 -9 -8
0 -22 4 -30 9 -18 12 -2 12 25 0z m-98 -25 c-4 -8 -11 -15 -17 -15 -7 0 -7 6
0 21 13 23 26 19 17 -6z m73 -24 c0 -6 -4 -13 -10 -16 -5 -3 -10 1 -10 9 0 9
5 16 10 16 6 0 10 -4 10 -9z m430 -1 c0 -5 -5 -10 -11 -10 -5 0 -7 5 -4 10 3
6 8 10 11 10 2 0 4 -4 4 -10z m2533 3 c-7 -2 -19 -2 -25 0 -7 3 -2 5 12 5 14
0 19 -2 13 -5z m-243 -13 c8 -5 11 -10 5 -10 -5 0 -17 5 -25 10 -8 5 -10 10
-5 10 6 0 17 -5 25 -10z m-2630 -4 c0 -2 -7 -9 -15 -16 -13 -11 -14 -10 -9 4
5 14 24 23 24 12z m79 -42 c-17 -21 -31 -17 -19 6 6 11 15 18 21 14 6 -4 6
-11 -2 -20z m506 6 c-3 -5 -14 -10 -23 -10 -15 0 -15 2 -2 10 20 13 33 13 25
0z m592 -6 c-3 -3 -12 -4 -19 -1 -8 3 -5 6 6 6 11 1 17 -2 13 -5z m-1025 -26
c-7 -7 -12 -8 -12 -2 0 14 12 26 19 19 2 -3 -1 -11 -7 -17z m45 0 c-3 -8 -6
-5 -6 6 -1 11 2 17 5 13 3 -3 4 -12 1 -19z m1026 15 c-7 -2 -19 -2 -25 0 -7 3
-2 5 12 5 14 0 19 -2 13 -5z m-230 -33 c5 0 5 -5 1 -11 -4 -8 4 -9 27 -4 22 4
29 3 21 -3 -20 -14 26 -24 50 -11 21 11 61 2 53 -12 -4 -5 -1 -9 4 -9 6 0 11
4 11 8 0 19 193 -31 256 -66 12 -6 24 -9 27 -6 9 9 68 -7 61 -17 -3 -5 -19 -9
-36 -9 -62 0 -15 -15 50 -16 69 -2 100 -6 117 -16 6 -3 32 -9 58 -12 50 -8
111 -29 103 -37 -2 -2 8 -5 22 -6 15 0 28 -6 30 -12 2 -6 8 -8 13 -5 6 3 20
-1 33 -9 12 -9 36 -18 52 -21 16 -3 56 -12 88 -20 33 -8 63 -13 67 -10 4 2 10
0 13 -5 4 -5 41 -12 84 -16 42 -4 89 -14 103 -21 15 -7 36 -11 48 -9 12 2 19
0 16 -6 -8 -12 25 -12 44 0 10 7 19 4 29 -7 13 -16 13 -16 8 1 -4 12 0 17 14
17 10 0 21 -4 24 -9 3 -5 22 -12 41 -15 19 -4 35 -11 35 -15 0 -5 20 -12 45
-15 24 -4 47 -12 51 -17 3 -6 13 -8 21 -5 8 3 27 0 41 -8 15 -8 48 -18 74 -21
26 -3 57 -14 70 -24 13 -10 41 -21 63 -25 22 -4 59 -14 83 -23 25 -8 52 -16
61 -18 9 -2 50 -12 91 -23 41 -11 102 -25 135 -31 33 -7 69 -16 80 -21 42 -17
61 -24 84 -26 13 -2 31 -10 40 -19 10 -8 20 -13 23 -10 3 3 11 -1 18 -10 7 -8
22 -15 34 -15 12 0 27 -5 33 -11 6 -6 42 -14 80 -17 62 -5 65 -6 33 -14 -74
-16 -334 -10 -472 12 -215 35 -725 159 -1283 312 -121 33 -260 71 -310 84
-138 37 -175 55 -232 106 -29 26 -70 55 -90 63 -51 22 -402 117 -433 118 -14
0 -45 -12 -69 -27 -23 -15 -45 -25 -48 -22 -3 2 9 12 27 21 18 9 29 19 27 22
-3 3 -18 -1 -34 -9 -17 -8 -38 -11 -53 -7 -16 4 -19 7 -7 8 9 1 17 6 17 11 0
6 9 10 20 10 11 0 20 7 20 15 0 8 9 15 20 15 11 0 20 5 20 11 0 8 22 10 73 5
39 -3 76 -6 80 -6z m-227 -109 c-3 -5 -22 -18 -42 -30 -19 -12 -32 -16 -29
-10 6 9 65 49 73 49 2 0 1 -4 -2 -9z m-1126 -27 c0 -2 -7 -4 -15 -4 -8 0 -15
4 -15 10 0 5 7 7 15 4 8 -4 15 -8 15 -10z m60 -18 c0 -8 -4 -18 -10 -21 -5 -3
-10 3 -10 14 0 12 5 21 10 21 6 0 10 -6 10 -14z m62 -21 c0 -5 -5 -11 -11 -13
-6 -2 -11 4 -11 13 0 9 5 15 11 13 6 -2 11 -8 11 -13z m78 -25 c0 -5 -4 -10
-9 -10 -6 0 -13 5 -16 10 -3 6 1 10 9 10 9 0 16 -4 16 -10z m67 -36 c-9 -9
-28 6 -21 18 4 6 10 6 17 -1 6 -6 8 -13 4 -17z m73 -30 c0 -8 -4 -12 -10 -9
-5 3 -10 13 -10 21 0 8 5 12 10 9 6 -3 10 -13 10 -21z m75 -12 c0 -18 -20 -15
-23 4 -3 10 1 15 10 12 7 -3 13 -10 13 -16z m2360 -7 c54 -17 33 -18 -30 -1
-27 8 -41 14 -30 14 11 0 38 -5 60 -13z m-2282 -26 c-4 -16 -8 -17 -14 -7 -13
19 -11 28 5 28 9 0 12 -7 9 -21z m2402 -4 c54 -17 33 -18 -30 -1 -27 8 -41 14
-30 14 11 0 38 -5 60 -13z m-2327 -13 c2 -7 -3 -12 -12 -12 -9 0 -16 7 -16 16
0 17 22 14 28 -4z m2445 -19 c-7 -2 -19 -2 -25 0 -7 3 -2 5 12 5 14 0 19 -2
13 -5z m67 -13 c20 -6 21 -8 5 -8 -11 0 -29 3 -40 8 -25 11 1 11 35 0z m57
-16 c-3 -3 -12 -4 -19 -1 -8 3 -5 6 6 6 11 1 17 -2 13 -5z m40 -10 c-3 -3 -12
-4 -19 -1 -8 3 -5 6 6 6 11 1 17 -2 13 -5z m1914 -96 c110 -56 199 -106 199
-111 0 -19 -78 6 -189 59 -62 30 -123 54 -134 54 -11 0 -18 3 -14 6 12 12 -19
31 -50 31 -18 0 -39 6 -48 13 -14 12 -14 15 2 31 10 10 22 18 27 18 5 1 98
-45 207 -101z m-1796 72 c25 -11 -1 -11 -35 0 -20 6 -21 8 -5 8 11 0 29 -3 40
-8z m62 -16 c-3 -3 -12 -4 -19 -1 -8 3 -5 6 6 6 11 1 17 -2 13 -5z m-1090
-150 c-3 -3 -12 -4 -19 -1 -8 3 -5 6 6 6 11 1 17 -2 13 -5z m318 -49 c368 -83
730 -155 781 -155 28 0 71 7 95 16 56 21 134 21 284 0 66 -9 127 -17 135 -18
8 -1 30 -10 48 -20 18 -10 39 -18 47 -18 7 0 26 -5 42 -12 15 -6 62 -20 103
-30 41 -10 80 -19 86 -21 7 -2 18 -8 25 -13 8 -6 85 -28 172 -49 86 -21 157
-42 157 -47 0 -5 5 -6 10 -3 6 4 25 2 43 -3 17 -5 59 -15 92 -22 33 -7 98 -23
145 -37 47 -13 130 -33 185 -43 94 -17 97 -18 45 -19 -174 -3 -497 32 -972
105 -455 69 -433 65 -569 118 -83 32 -157 53 -260 71 -79 14 -220 41 -314 60
-93 18 -202 39 -242 46 -40 6 -70 16 -67 20 3 5 -8 7 -23 5 -15 -2 -21 -1 -13
2 8 2 -21 15 -65 27 -175 48 -245 72 -238 79 5 5 -3 5 -17 2 -18 -5 -21 -5
-10 3 20 14 69 7 295 -44z m-2375 -50 c0 -17 -2 -18 -25 -9 -13 5 -14 8 -3 15
19 13 28 11 28 -6z m2373 -12 c-7 -2 -19 -2 -25 0 -7 3 -2 5 12 5 14 0 19 -2
13 -5z m-2163 -493 c0 -5 -5 -10 -11 -10 -5 0 -7 5 -4 10 3 6 8 10 11 10 2 0
4 -4 4 -10z m2393 -247 c-7 -2 -21 -2 -30 0 -10 3 -4 5 12 5 17 0 24 -2 18 -5z
m60 -10 c-7 -2 -19 -2 -25 0 -7 3 -2 5 12 5 14 0 19 -2 13 -5z m80 -10 c-7 -2
-21 -2 -30 0 -10 3 -4 5 12 5 17 0 24 -2 18 -5z m70 -10 c-7 -2 -21 -2 -30 0
-10 3 -4 5 12 5 17 0 24 -2 18 -5z m-2344 -64 c65 -15 398 -84 576 -120 145
-29 225 -43 310 -54 22 -3 56 -9 75 -12 19 -4 42 -8 50 -9 38 -5 178 -25 200
-28 14 -3 61 -7 105 -11 96 -7 136 -13 509 -70 160 -24 379 -55 486 -69 107
-14 229 -30 270 -36 127 -17 447 -50 600 -60 450 -32 720 -50 835 -56 72 -3
184 -13 250 -21 66 -8 201 -18 300 -23 99 -5 200 -12 225 -15 54 -7 115 -13
154 -14 75 -3 0 -12 -224 -27 -254 -17 -573 -15 -890 6 -512 33 -635 42 -715
50 -96 10 -151 12 -144 6 6 -6 410 -42 679 -61 274 -20 305 -26 100 -20 -333
9 -1211 99 -1750 180 -310 46 -949 161 -908 164 9 1 90 -13 180 -30 172 -32
528 -89 713 -115 352 -48 562 -74 589 -73 17 1 -48 12 -144 24 -96 13 -238 33
-315 45 -77 12 -214 32 -305 46 -152 23 -683 122 -775 144 -22 6 -51 12 -65
14 -161 29 -702 153 -875 201 -133 37 -175 51 -175 61 0 3 8 3 17 0 9 -4 37
-11 62 -17z m-42 -45 c-3 -3 -12 -4 -19 -1 -8 3 -5 6 6 6 11 1 17 -2 13 -5z
m80 -20 c-3 -3 -12 -4 -19 -1 -8 3 -5 6 6 6 11 1 17 -2 13 -5z m90 -20 c-3 -3
-12 -4 -19 -1 -8 3 -5 6 6 6 11 1 17 -2 13 -5z m50 -10 c-3 -3 -12 -4 -19 -1
-8 3 -5 6 6 6 11 1 17 -2 13 -5z m40 -10 c-3 -3 -12 -4 -19 -1 -8 3 -5 6 6 6
11 1 17 -2 13 -5z m40 -10 c-3 -3 -12 -4 -19 -1 -8 3 -5 6 6 6 11 1 17 -2 13
-5z m50 -10 c-3 -3 -12 -4 -19 -1 -8 3 -5 6 6 6 11 1 17 -2 13 -5z m113 -24
c20 -6 21 -8 5 -8 -11 0 -31 4 -45 8 -20 6 -21 8 -5 8 11 0 31 -4 45 -8z m125
-29 c39 -11 63 -19 55 -20 -8 0 -46 8 -85 18 -38 11 -63 19 -55 20 8 0 47 -8
85 -18z m135 -31 c20 -6 21 -8 5 -8 -11 0 -31 4 -45 8 -20 6 -21 8 -5 8 11 0
31 -4 45 -8z m673 3 c-7 -2 -19 -2 -25 0 -7 3 -2 5 12 5 14 0 19 -2 13 -5z
m207 -29 c58 -8 141 -17 185 -19 44 -2 109 -8 145 -14 36 -6 97 -11 135 -12
39 -1 77 -5 85 -9 8 -4 49 -10 90 -14 41 -4 86 -9 100 -11 14 -2 54 -9 90 -14
36 -6 89 -15 119 -21 29 -5 57 -7 62 -4 5 3 15 2 22 -3 6 -4 29 -8 50 -9 20
-1 38 -2 40 -4 2 -2 94 -8 160 -11 15 -1 27 -4 27 -8 0 -3 34 -6 76 -5 41 0
99 -3 127 -8 29 -4 86 -11 127 -14 88 -6 143 -21 137 -37 -2 -7 -8 -12 -13
-12 -179 4 -909 85 -1314 146 -304 46 -634 101 -640 107 -5 5 20 2 190 -24z
m-817 9 c-7 -2 -19 -2 -25 0 -7 3 -2 5 12 5 14 0 19 -2 13 -5z m44 -9 c-3 -3
-12 -4 -19 -1 -8 3 -5 6 6 6 11 1 17 -2 13 -5z m46 -11 c-7 -2 -19 -2 -25 0
-7 3 -2 5 12 5 14 0 19 -2 13 -5z m50 -10 c-7 -2 -19 -2 -25 0 -7 3 -2 5 12 5
14 0 19 -2 13 -5z m44 -9 c-3 -3 -12 -4 -19 -1 -8 3 -5 6 6 6 11 1 17 -2 13
-5z m3374 -11 c13 -16 12 -17 -3 -4 -10 7 -18 15 -18 17 0 8 8 3 21 -13z
m-3328 0 c-7 -2 -19 -2 -25 0 -7 3 -2 5 12 5 14 0 19 -2 13 -5z m77 -13 c20
-6 21 -8 5 -8 -11 0 -31 4 -45 8 -20 6 -21 8 -5 8 11 0 31 -4 45 -8z m3315
-70 c10 -11 16 -20 13 -20 -3 0 -13 9 -23 20 -10 11 -16 20 -13 20 3 0 13 -9
23 -20z m-976 -76 c5 13 10 16 14 8 4 -6 15 -11 25 -11 28 -1 97 -8 97 -10 0
-2 18 -4 40 -6 46 -4 141 -14 199 -21 39 -4 53 -10 45 -18 -3 -3 -430 24 -436
28 0 1 -4 19 -7 41 l-6 40 11 -35 c10 -30 13 -32 18 -16z m1072 -46 c20 -36 0
-16 -40 40 -40 54 -40 55 -6 17 20 -22 40 -48 46 -57z m-590 13 c7 11 9 11 9
1 0 -8 9 -11 25 -8 13 3 28 0 31 -6 4 -7 9 -6 14 2 5 8 15 10 26 5 11 -4 35
-9 54 -11 97 -8 206 -16 310 -23 95 -7 103 -8 45 -10 -69 -1 -537 18 -541 22
-1 1 -5 16 -9 32 l-7 30 17 -24 c14 -18 19 -20 26 -10z m737 -48 c-21 -2 -55
-2 -75 0 -21 2 -4 4 37 4 41 0 58 -2 38 -4z m-3909 -80 c98 -99 203 -183 296
-238 50 -29 108 -67 130 -85 50 -40 115 -125 122 -162 3 -15 9 -28 13 -28 7 0
173 194 178 209 1 4 -15 15 -35 25 -111 52 -330 192 -363 231 -14 17 -13 18
10 12 14 -3 86 -15 160 -26 160 -25 398 -73 382 -79 -6 -2 -79 8 -162 22 -159
27 -210 31 -210 18 0 -13 50 -55 120 -102 36 -24 77 -52 92 -62 15 -10 29 -18
32 -18 2 0 42 -18 88 -39 45 -22 96 -43 111 -47 15 -3 26 -8 24 -11 -3 -2 -30
3 -61 12 -32 9 -61 13 -69 8 -8 -4 -49 -45 -91 -90 l-76 -81 72 -30 c248 -103
533 -150 838 -139 374 14 700 112 1068 321 61 34 122 47 122 26 0 -15 -183
-119 -313 -177 -340 -154 -618 -216 -967 -216 -269 0 -468 34 -710 120 -124
44 -125 44 -157 27 -25 -13 -43 -38 -77 -110 -76 -158 -149 -215 -282 -222
-94 -5 -156 21 -223 94 -65 71 -85 130 -79 238 5 105 45 185 130 259 51 45 58
56 58 89 0 32 -6 42 -47 75 -68 54 -201 183 -226 217 l-21 29 33 -6 c22 -5 53
-27 90 -64z m3329 -60 c-21 -2 -55 -2 -75 0 -21 2 -4 4 37 4 41 0 58 -2 38 -4z
m-2391 -89 c-3 -3 -12 -4 -19 -1 -8 3 -5 6 6 6 11 1 17 -2 13 -5z m1342 -168
c-7 -7 -251 -78 -254 -74 -2 2 34 17 81 33 46 16 84 33 84 37 0 4 21 8 47 8
25 0 44 -2 42 -4z m-3323 -1261 c59 -99 131 -222 160 -272 l53 -93 -55 0 c-51
0 -56 2 -72 31 -22 41 -143 234 -177 282 -29 43 -38 41 -76 -19 -17 -28 -19
-37 -9 -49 10 -13 6 -25 -25 -68 -20 -28 -55 -80 -77 -114 l-40 -63 -60 0 -59
0 28 48 c25 43 230 393 276 470 11 18 21 32 22 30 2 -2 52 -84 111 -183z
m3612 72 c32 -56 101 -169 151 -252 51 -82 97 -158 102 -167 9 -16 4 -18 -48
-18 l-58 0 -70 112 c-38 62 -72 117 -74 123 -8 21 -72 115 -79 115 -10 0 -65
-94 -68 -115 -1 -9 -25 -51 -52 -93 -27 -42 -59 -94 -72 -115 -22 -38 -23 -38
-81 -35 -33 1 -59 4 -59 5 0 3 286 482 317 531 7 12 18 20 23 17 5 -3 35 -51
68 -108z m-4810 -24 l-3 -48 -224 -5 c-199 -4 -225 -7 -235 -22 -8 -13 -8 -23
0 -35 10 -16 35 -19 215 -23 127 -3 212 -9 224 -17 96 -55 99 -199 5 -245 -31
-15 -79 -18 -401 -20 l-366 -3 15 25 c40 64 14 60 372 60 240 0 329 3 338 12
16 16 15 63 -1 76 -7 6 -93 12 -212 14 -224 3 -249 10 -279 72 -34 72 -7 153
64 188 30 16 66 18 263 18 l228 0 -3 -47z m757 -3 l-25 -50 -120 0 -120 0 0
-58 c0 -33 -3 -114 -7 -180 l-6 -122 -44 0 -43 0 0 180 0 180 -82 0 c-46 0
-99 3 -120 6 -34 6 -36 9 -40 46 -2 21 -2 41 1 44 2 2 145 4 318 4 l313 0 -25
-50z m1222 21 c45 -26 83 -86 83 -132 -1 -42 -37 -108 -67 -121 -15 -7 -29
-13 -31 -14 -6 -4 29 -67 64 -116 l34 -48 -54 0 -54 0 -73 90 -72 90 -104 0
-103 0 0 -90 0 -90 -44 0 c-31 0 -46 5 -50 16 -3 9 -6 69 -6 135 0 88 3 119
13 119 6 0 107 2 222 3 l210 2 3 23 c2 13 -4 32 -14 43 -16 17 -33 19 -203 19
-102 0 -196 3 -208 6 -20 5 -23 13 -23 51 l0 44 218 -3 c209 -3 219 -4 259
-27z m645 -48 c25 -43 67 -117 94 -165 26 -49 53 -88 58 -88 6 0 54 73 106
163 l96 162 57 3 c31 2 57 0 57 -3 0 -4 -53 -93 -118 -198 -65 -106 -135 -220
-156 -255 -35 -57 -39 -62 -51 -45 -24 34 -295 492 -295 497 0 3 24 6 53 6
l53 0 46 -77z m986 65 c56 -14 124 -77 142 -132 7 -22 10 -68 8 -109 -5 -89
-36 -142 -106 -180 -45 -24 -57 -26 -207 -29 -181 -3 -194 1 -258 71 -104 115
-54 325 89 376 49 18 267 20 332 3z m338 -2 c11 -8 44 -46 74 -85 29 -39 59
-72 66 -75 7 -3 44 32 85 79 39 46 78 86 86 89 18 7 113 8 113 1 0 -3 -52 -69
-115 -147 l-115 -142 0 -83 0 -83 -50 0 -50 0 0 89 0 89 -84 103 c-46 57 -98
117 -115 133 -17 17 -31 33 -31 38 0 14 114 9 136 -6z m1754 -31 l0 -45 -62
-1 c-329 -6 -325 -6 -361 -28 -36 -22 -67 -80 -67 -124 0 -12 9 -41 20 -65 28
-63 59 -72 230 -72 l140 0 0 49 0 49 -62 6 c-35 3 -79 7 -98 9 -34 2 -35 3
-35 42 l0 40 148 3 147 3 0 -143 0 -143 -216 2 c-212 3 -217 3 -260 28 -182
107 -139 384 66 426 19 4 119 7 223 8 l187 1 0 -45z m655 -5 l0 -45 -190 0
c-104 0 -220 2 -257 3 l-68 4 0 44 0 44 258 -2 257 -3 0 -45z m580 39 c50 -14
102 -68 111 -115 13 -68 -20 -128 -91 -169 -15 -9 -11 -19 39 -88 l55 -77 -57
0 -58 0 -69 88 -70 87 -95 0 -95 0 -3 -90 -3 -91 -47 6 -47 5 -3 133 -3 132
209 0 c214 0 232 3 232 40 0 9 -8 24 -18 33 -15 14 -50 17 -218 19 l-199 3 -3
48 -3 47 198 0 c114 0 215 -5 238 -11z m-593 -214 c-2 -22 -9 -43 -15 -48 -7
-4 -93 -7 -192 -5 l-179 3 -8 -40 c-5 -21 -6 -45 -4 -52 4 -10 52 -13 211 -13
l205 0 0 -40 0 -40 -260 0 -260 0 0 140 0 140 253 -2 252 -3 -3 -40z m-5193
-158 l51 -77 -105 0 -104 0 52 78 c29 43 53 78 54 78 1 -1 24 -36 52 -79z
m3640 6 l50 -78 -96 -3 c-52 -1 -97 -1 -100 1 -3 4 88 156 94 157 1 0 25 -35
52 -77z"/>
<path d="M5172 8165 c-38 -42 -52 -90 -52 -176 0 -53 6 -77 31 -127 35 -70 71
-105 147 -140 79 -36 126 -32 262 21 63 25 127 49 142 53 l27 9 -59 94 c-33
52 -67 114 -76 138 -9 23 -21 40 -25 37 -5 -3 -7 -10 -4 -15 8 -12 8 -12 -52
6 -28 8 -61 15 -74 15 -50 -1 -102 8 -108 18 -4 6 -15 11 -26 12 -45 1 -65 5
-65 12 0 4 -8 4 -17 1 -12 -5 -15 -2 -10 10 5 12 1 17 -13 17 -24 0 -25 8 -3
32 9 10 14 18 11 18 -3 0 -20 -16 -36 -35z"/>
<path d="M6048 8073 c7 -3 16 -2 19 1 4 3 -2 6 -13 5 -11 0 -14 -3 -6 -6z"/>
<path d="M6465 8062 c-3 -7 -15 -12 -27 -11 -27 3 -70 -10 -79 -23 -4 -5 -27
-10 -53 -10 -25 -1 -46 -4 -46 -8 0 -9 -72 -7 -87 3 -8 5 -13 3 -13 -4 0 -7
-6 -5 -13 6 -11 14 -30 19 -93 21 -43 2 -81 4 -84 5 -3 1 -14 1 -25 0 l-20 -1
20 10 c16 8 13 10 -16 6 -65 -8 -199 -48 -199 -60 0 -10 45 -73 108 -151 l23
-29 89 17 c218 42 467 41 698 -4 456 -88 878 -370 1140 -763 80 -120 187 -329
231 -453 l32 -92 126 -41 c69 -22 127 -39 130 -37 6 6 -66 244 -101 337 -184
475 -544 873 -996 1100 -171 86 -382 153 -582 185 -110 18 -155 17 -163 -3z
m-68 -38 c-3 -3 -12 -4 -19 -1 -8 3 -5 6 6 6 11 1 17 -2 13 -5z"/>
<path d="M5974 8061 c5 -8 56 -3 56 5 0 2 -14 4 -31 4 -16 0 -28 -4 -25 -9z"/>
<path d="M6165 7818 c-55 -4 -127 -12 -160 -18 -72 -14 -306 -92 -390 -130
-33 -15 -70 -30 -82 -34 -13 -4 -23 -12 -23 -17 0 -5 -4 -9 -9 -9 -16 0 -181
-102 -204 -126 -12 -13 -28 -24 -34 -24 -7 0 -13 -4 -13 -10 0 -5 -5 -10 -11
-10 -20 0 -104 -85 -101 -102 2 -11 36 -27 100 -48 113 -37 249 -106 257 -130
6 -18 55 -31 275 -70 201 -36 359 -70 565 -120 110 -27 265 -63 345 -79 80
-17 237 -56 350 -86 113 -31 293 -78 400 -105 107 -27 267 -70 355 -95 88 -25
165 -43 171 -41 18 7 7 111 -20 186 -21 57 -107 222 -133 255 -5 6 -16 22 -25
36 -9 14 -23 32 -30 40 -8 8 -19 21 -24 31 -34 60 -206 238 -310 320 -151 120
-287 199 -469 272 -54 21 -233 72 -320 90 -133 28 -291 36 -460 24z"/>
<path d="M5050 7650 c-78 -58 -250 -221 -250 -238 0 -7 225 -72 251 -72 7 0
40 26 73 58 34 31 78 71 99 87 l37 30 -56 98 c-30 53 -59 97 -64 97 -4 0 -45
-27 -90 -60z"/>
<path d="M6210 6972 c18 -11 140 -35 146 -29 3 2 -21 9 -53 16 -32 6 -69 14
-83 17 -18 4 -21 3 -10 -4z"/>
<path d="M6945 6764 c46 -23 47 -25 15 -18 -65 12 -26 -4 85 -34 130 -36 314
-76 321 -69 9 9 -437 150 -465 146 -3 0 17 -12 44 -25z"/>
<path d="M5685 6765 c-5 -2 -41 -7 -79 -10 -86 -9 -70 -25 24 -25 89 0 230
-17 320 -37 41 -9 77 -17 80 -18 3 0 42 -14 88 -30 l82 -30 -132 -22 c-73 -12
-153 -29 -178 -37 -48 -17 -46 -17 100 14 102 21 356 44 393 35 12 -3 51 -7
87 -9 131 -7 560 -162 1028 -370 144 -65 267 -116 272 -114 11 4 -151 78 -400
185 -303 130 -606 245 -745 282 -113 31 -114 32 -90 41 15 6 7 9 -30 10 -220
5 -305 14 -348 36 -17 9 -48 18 -70 20 -22 2 -45 8 -51 13 -6 5 -21 7 -33 5
-13 -2 -23 0 -23 5 0 10 -74 39 -112 44 -15 1 -30 6 -34 10 -7 7 -130 9 -149
2z"/>
<path d="M7510 6567 c3 -2 45 -21 93 -41 139 -57 390 -172 540 -247 76 -39
143 -67 149 -63 6 4 8 3 5 -3 -3 -5 11 -20 32 -31 43 -25 56 -27 45 -10 -4 7
-3 8 5 4 6 -4 9 -11 6 -16 -3 -5 9 -17 27 -26 18 -9 104 -64 191 -121 98 -66
202 -125 275 -158 156 -70 179 -76 127 -36 -22 17 -46 31 -54 31 -8 0 -12 3
-8 6 11 12 -74 74 -101 74 -17 0 -22 3 -15 8 14 9 -103 89 -277 192 -236 139
-813 402 -842 384 -6 -4 -8 -3 -5 3 7 11 -47 30 -113 38 -25 3 -54 8 -65 11
-11 4 -18 4 -15 1z"/>
<path d="M7867 6069 c7 -7 15 -10 18 -7 3 3 -2 9 -12 12 -14 6 -15 5 -6 -5z"/>
<path d="M8411 5891 c-8 -5 -9 -11 -3 -15 5 -3 12 1 16 9 6 17 6 18 -13 6z"/>
<path d="M9340 5335 c0 -2 23 -16 50 -30 28 -14 50 -23 50 -20 0 2 -22 16 -50
30 -27 14 -50 23 -50 20z"/>
<path d="M9450 5277 c0 -2 19 -17 43 -32 23 -16 37 -22 30 -14 -12 15 -73 53
-73 46z"/>
<path d="M10163 4996 c4 -15 175 -98 190 -93 7 2 -34 27 -91 55 -57 27 -101
45 -99 38z"/>
<path d="M10146 4911 c-7 -10 17 -33 30 -29 5 1 32 -10 59 -24 66 -34 95 -42
95 -28 0 6 -38 29 -84 51 -92 43 -92 43 -100 30z"/>
<path d="M10190 4850 c8 -5 20 -10 25 -10 6 0 3 5 -5 10 -8 5 -19 10 -25 10
-5 0 -3 -5 5 -10z"/>
<path d="M10250 4826 c0 -2 7 -7 16 -10 8 -3 12 -2 9 4 -6 10 -25 14 -25 6z"/>
<path d="M4555 7110 c-3 -5 3 -10 15 -10 12 0 18 5 15 10 -3 6 -10 10 -15 10
-5 0 -12 -4 -15 -10z"/>
<path d="M4620 7109 c0 -5 5 -7 10 -4 6 3 10 8 10 11 0 2 -4 4 -10 4 -5 0 -10
-5 -10 -11z"/>
<path d="M4367 7099 c7 -7 15 -10 18 -7 3 3 -2 9 -12 12 -14 6 -15 5 -6 -5z"/>
<path d="M2280 6796 c0 -2 7 -7 16 -10 8 -3 12 -2 9 4 -6 10 -25 14 -25 6z"/>
<path d="M2485 6750 c4 -6 11 -8 16 -5 14 9 11 15 -7 15 -8 0 -12 -5 -9 -10z"/>
<path d="M6673 4113 c9 -2 23 -2 30 0 6 3 -1 5 -18 5 -16 0 -22 -2 -12 -5z"/>
<path d="M6758 4103 c7 -3 16 -2 19 1 4 3 -2 6 -13 5 -11 0 -14 -3 -6 -6z"/>
<path d="M6933 4083 c9 -2 25 -2 35 0 9 3 1 5 -18 5 -19 0 -27 -2 -17 -5z"/>
<path d="M4945 3691 c-187 -49 -257 -303 -126 -453 99 -112 256 -114 357 -6
54 57 68 94 68 183 0 98 -15 155 -56 201 -57 64 -161 97 -243 75z"/>
<path d="M5784 2441 c-63 -38 -79 -146 -32 -206 36 -46 68 -55 190 -55 127 0
164 13 193 69 35 69 7 179 -51 201 -14 6 -80 10 -147 10 -102 0 -127 -3 -153
-19z"/>
<path d="M1060 10229 c0 -5 5 -7 10 -4 6 3 10 8 10 11 0 2 -4 4 -10 4 -5 0
-10 -5 -10 -11z"/>
<path d="M2796 9601 c-4 -5 -2 -12 3 -15 5 -4 12 -2 15 3 4 5 2 12 -3 15 -5 4
-12 2 -15 -3z"/>
<path d="M3340 8190 c0 -11 4 -20 8 -20 4 0 8 9 9 20 1 11 -2 20 -8 20 -5 0
-9 -9 -9 -20z"/>
<path d="M3336 8081 c-18 -7 -18 -8 -2 -14 27 -11 36 -8 36 8 0 16 -5 17 -34
6z"/>
<path d="M3205 8061 c-4 -7 -112 -19 -195 -22 -18 -1 -20 -3 -7 -6 10 -3 16
-10 14 -16 -2 -8 -36 -11 -108 -10 -113 2 -113 -1 1 -20 41 -8 74 -18 73 -23
-1 -6 20 1 48 14 36 18 66 25 112 25 36 0 46 2 25 4 -21 2 -38 9 -38 14 0 11
122 7 193 -6 24 -5 37 -3 37 4 0 6 -8 12 -17 12 -43 3 -60 7 -95 22 -21 9 -40
12 -43 8z"/>
<path d="M3273 7993 c9 -2 25 -2 35 0 9 3 1 5 -18 5 -19 0 -27 -2 -17 -5z"/>
<path d="M2508 7873 c7 -3 16 -2 19 1 4 3 -2 6 -13 5 -11 0 -14 -3 -6 -6z"/>
<path d="M1585 7220 c27 -12 43 -12 25 0 -8 5 -22 9 -30 9 -10 0 -8 -3 5 -9z"/>
<path d="M2980 5710 c-8 -5 -10 -10 -5 -10 6 0 17 5 25 10 8 5 11 10 5 10 -5
0 -17 -5 -25 -10z"/>
<path d="M2924 5684 c-18 -14 -18 -14 6 -3 31 14 36 19 24 19 -6 0 -19 -7 -30
-16z"/>
<path d="M3090 5671 c-32 -10 -93 -41 -88 -46 1 -2 34 7 71 19 37 12 65 25 61
29 -8 8 -10 8 -44 -2z"/>
<path d="M3105 5610 c-3 -5 -1 -10 4 -10 6 0 11 5 11 10 0 6 -2 10 -4 10 -3 0
-8 -4 -11 -10z"/>
<path d="M3810 5140 c0 -5 7 -10 16 -10 8 0 12 5 9 10 -3 6 -10 10 -16 10 -5
0 -9 -4 -9 -10z"/>
<path d="M3634 4938 l-19 -21 30 18 c41 26 40 25 23 25 -8 0 -23 -10 -34 -22z"/>
<path d="M3544 4904 c-18 -14 -18 -15 4 -4 12 6 22 13 22 15 0 8 -5 6 -26 -11z"/>
<path d="M3555 4879 c-9 -14 -2 -20 14 -10 8 6 9 11 3 15 -6 3 -14 1 -17 -5z"/>
</g>
</svg>
